<svg id="圖層_1" data-name="圖層 1" xmlns="http://www.w3.org/2000/svg" xmlns:xlink="http://www.w3.org/1999/xlink" viewBox="0 0 175 92.37"><defs><style>.cls-1{fill:url(#未命名漸層_89);}.cls-2{fill:url(#未命名漸層_88);}.cls-11,.cls-115,.cls-16,.cls-18,.cls-3,.cls-36,.cls-40,.cls-43,.cls-48,.cls-51,.cls-54,.cls-59,.cls-6,.cls-64,.cls-66,.cls-72,.cls-76,.cls-79{opacity:0.8;}.cls-3{fill:url(#未命名漸層_85);}.cls-12,.cls-13,.cls-17,.cls-33,.cls-37,.cls-4,.cls-44,.cls-45,.cls-5,.cls-52,.cls-53,.cls-60,.cls-61,.cls-65,.cls-69,.cls-73,.cls-80,.cls-81,.cls-84{opacity:0.3;}.cls-4{fill:url(#未命名漸層_85-2);}.cls-5{fill:url(#未命名漸層_85-3);}.cls-6{fill:url(#未命名漸層_85-4);}.cls-7{fill:url(#未命名漸層_88-2);}.cls-8{fill:url(#未命名漸層_89-2);}.cls-9{fill:url(#未命名漸層_88-3);}.cls-10{fill:url(#未命名漸層_89-3);}.cls-11{fill:url(#未命名漸層_85-5);}.cls-12{fill:url(#未命名漸層_85-6);}.cls-13{fill:url(#未命名漸層_85-7);}.cls-14{fill:url(#未命名漸層_88-4);}.cls-15{fill:url(#未命名漸層_89-4);}.cls-16{fill:url(#未命名漸層_85-8);}.cls-17{fill:url(#未命名漸層_85-9);}.cls-18{fill:url(#未命名漸層_85-10);}.cls-19{fill:url(#未命名漸層_89-5);}.cls-20{fill:url(#未命名漸層_88-5);}.cls-21{fill:url(#未命名漸層_88-6);}.cls-22{fill:url(#未命名漸層_89-6);}.cls-23{fill:url(#未命名漸層_88-7);}.cls-24{fill:url(#未命名漸層_89-7);}.cls-25{fill:url(#未命名漸層_89-8);}.cls-26{fill:url(#未命名漸層_88-8);}.cls-27{fill:url(#未命名漸層_88-9);}.cls-28{fill:url(#未命名漸層_89-9);}.cls-29{fill:url(#未命名漸層_88-10);}.cls-30{fill:url(#未命名漸層_89-10);}.cls-31{fill:url(#未命名漸層_88-11);}.cls-32{fill:url(#未命名漸層_89-11);}.cls-33{fill:url(#未命名漸層_85-11);}.cls-34{fill:url(#未命名漸層_89-12);}.cls-35{fill:url(#未命名漸層_88-12);}.cls-36{fill:url(#未命名漸層_85-12);}.cls-37{fill:url(#未命名漸層_85-13);}.cls-38{fill:url(#未命名漸層_89-13);}.cls-39{fill:url(#未命名漸層_88-13);}.cls-40{fill:url(#未命名漸層_85-14);}.cls-41{fill:url(#未命名漸層_89-14);}.cls-42{fill:url(#未命名漸層_88-14);}.cls-43{fill:url(#未命名漸層_85-15);}.cls-44{fill:url(#未命名漸層_85-16);}.cls-45{fill:url(#未命名漸層_85-17);}.cls-46{fill:url(#未命名漸層_89-15);}.cls-47{fill:url(#未命名漸層_88-15);}.cls-48{fill:url(#未命名漸層_85-18);}.cls-49{fill:url(#未命名漸層_89-16);}.cls-50{fill:url(#未命名漸層_88-16);}.cls-51{fill:url(#未命名漸層_85-19);}.cls-52{fill:url(#未命名漸層_85-20);}.cls-53{fill:url(#未命名漸層_85-21);}.cls-54{fill:url(#未命名漸層_85-22);}.cls-55{fill:url(#未命名漸層_88-17);}.cls-56{fill:url(#未命名漸層_89-17);}.cls-57{fill:url(#未命名漸層_88-18);}.cls-58{fill:url(#未命名漸層_89-18);}.cls-59{fill:url(#未命名漸層_85-23);}.cls-60{fill:url(#未命名漸層_85-24);}.cls-61{fill:url(#未命名漸層_85-25);}.cls-62{fill:url(#未命名漸層_88-19);}.cls-63{fill:url(#未命名漸層_89-19);}.cls-64{fill:url(#未命名漸層_85-26);}.cls-65{fill:url(#未命名漸層_85-27);}.cls-66{fill:url(#未命名漸層_85-28);}.cls-67{fill:url(#未命名漸層_89-20);}.cls-68{fill:url(#未命名漸層_88-20);}.cls-69{fill:url(#未命名漸層_85-29);}.cls-70{fill:url(#未命名漸層_89-21);}.cls-71{fill:url(#未命名漸層_88-21);}.cls-72{fill:url(#未命名漸層_85-30);}.cls-73{fill:url(#未命名漸層_85-31);}.cls-74{fill:url(#未命名漸層_89-22);}.cls-75{fill:url(#未命名漸層_88-22);}.cls-76{fill:url(#未命名漸層_85-32);}.cls-77{fill:url(#未命名漸層_89-23);}.cls-78{fill:url(#未命名漸層_88-23);}.cls-79{fill:url(#未命名漸層_85-33);}.cls-80{fill:url(#未命名漸層_85-34);}.cls-81{fill:url(#未命名漸層_85-35);}.cls-82{fill:url(#未命名漸層_89-24);}.cls-83{fill:url(#未命名漸層_88-24);}.cls-85{fill:url(#未命名漸層_90);}.cls-86{fill:url(#未命名漸層_90-2);}.cls-87{fill:url(#未命名漸層_90-3);}.cls-88{fill:url(#未命名漸層_90-4);}.cls-89{fill:url(#未命名漸層_90-5);}.cls-90{fill:url(#未命名漸層_90-6);}.cls-91{fill:url(#未命名漸層_90-7);}.cls-92{fill:url(#未命名漸層_90-8);}.cls-93{fill:url(#未命名漸層_90-9);}.cls-94{fill:url(#未命名漸層_90-10);}.cls-95{fill:url(#未命名漸層_90-11);}.cls-96{fill:url(#未命名漸層_90-12);}.cls-97{fill:url(#未命名漸層_90-13);}.cls-98{fill:url(#未命名漸層_90-14);}.cls-99{fill:url(#未命名漸層_90-15);}.cls-100{fill:url(#未命名漸層_90-16);}.cls-101{fill:url(#未命名漸層_90-17);}.cls-102{fill:url(#未命名漸層_90-18);}.cls-103{fill:url(#未命名漸層_90-19);}.cls-104{fill:url(#未命名漸層_90-20);}.cls-105{fill:url(#未命名漸層_90-21);}.cls-106{fill:url(#未命名漸層_90-22);}.cls-107{fill:url(#未命名漸層_90-23);}.cls-108{fill:url(#未命名漸層_90-24);}.cls-109{fill:url(#未命名漸層_90-25);}.cls-110{fill:url(#未命名漸層_90-26);}.cls-111{fill:url(#未命名漸層_90-27);}.cls-112{fill:url(#未命名漸層_90-28);}.cls-113{fill:url(#未命名漸層_90-29);}.cls-114{fill:url(#未命名漸層_90-30);}.cls-115{fill:url(#未命名漸層_85-36);}.cls-116,.cls-117,.cls-118,.cls-119,.cls-120,.cls-121,.cls-122,.cls-123,.cls-124,.cls-125,.cls-126,.cls-127,.cls-128,.cls-129,.cls-130,.cls-131,.cls-132,.cls-133{opacity:0.15;}.cls-116{fill:url(#未命名漸層_85-37);}.cls-117{fill:url(#未命名漸層_85-38);}.cls-118{fill:url(#未命名漸層_85-39);}.cls-119{fill:url(#未命名漸層_85-40);}.cls-120{fill:url(#未命名漸層_85-41);}.cls-121{fill:url(#未命名漸層_85-42);}.cls-122{fill:url(#未命名漸層_85-43);}.cls-123{fill:url(#未命名漸層_85-44);}.cls-124{fill:url(#未命名漸層_85-45);}.cls-125{fill:url(#未命名漸層_85-46);}.cls-126{fill:url(#未命名漸層_85-47);}.cls-127{fill:url(#未命名漸層_85-48);}.cls-128{fill:url(#未命名漸層_85-49);}.cls-129{fill:url(#未命名漸層_85-50);}.cls-130{fill:url(#未命名漸層_85-51);}.cls-131{fill:url(#未命名漸層_85-52);}.cls-132{fill:url(#未命名漸層_85-53);}.cls-133{fill:url(#未命名漸層_85-54);}.cls-134{fill:#035974;}</style><linearGradient id="未命名漸層_89" x1="24.21" y1="103.96" x2="24.21" y2="83.25" gradientUnits="userSpaceOnUse"><stop offset="0.01" stop-color="#9ea5b8"/><stop offset="1" stop-color="#074053"/></linearGradient><linearGradient id="未命名漸層_88" x1="24.21" y1="83.88" x2="24.21" y2="64.67" gradientUnits="userSpaceOnUse"><stop offset="0.01" stop-color="#649099"/><stop offset="1" stop-color="#074053"/></linearGradient><linearGradient id="未命名漸層_85" x1="24.21" y1="65.39" x2="24.21" y2="59.38" gradientUnits="userSpaceOnUse"><stop offset="0" stop-color="#366f8c"/><stop offset="1" stop-color="#074053"/></linearGradient><linearGradient id="未命名漸層_85-2" x1="24.21" y1="60.1" x2="24.21" y2="53.91" xlink:href="#未命名漸層_85"/><linearGradient id="未命名漸層_85-3" x1="31.47" y1="60.39" x2="31.47" y2="54.45" xlink:href="#未命名漸層_85"/><linearGradient id="未命名漸層_85-4" x1="31.47" y1="65.68" x2="31.47" y2="59.92" xlink:href="#未命名漸層_85"/><linearGradient id="未命名漸層_88-2" x1="31.47" y1="84.51" x2="31.47" y2="65.21" xlink:href="#未命名漸層_88"/><linearGradient id="未命名漸層_89-2" x1="31.47" y1="103.96" x2="31.47" y2="84.02" xlink:href="#未命名漸層_89"/><linearGradient id="未命名漸層_88-3" x1="21.89" y1="32.33" x2="21.89" y2="12.79" xlink:href="#未命名漸層_88"/><linearGradient id="未命名漸層_89-3" x1="21.89" y1="50.14" x2="21.89" y2="31.62" xlink:href="#未命名漸層_89"/><linearGradient id="未命名漸層_85-5" x1="21.89" y1="13.5" x2="21.89" y2="7.49" xlink:href="#未命名漸層_85"/><linearGradient id="未命名漸層_85-6" x1="21.89" y1="8.2" x2="21.89" y2="2.03" xlink:href="#未命名漸層_85"/><linearGradient id="未命名漸層_85-7" x1="24.87" y1="9.88" x2="24.87" y2="3.48" xlink:href="#未命名漸層_85"/><linearGradient id="未命名漸層_88-4" x1="24.87" y1="34" x2="24.87" y2="14.24" xlink:href="#未命名漸層_88"/><linearGradient id="未命名漸層_89-4" x1="24.87" y1="50.14" x2="24.87" y2="33.07" xlink:href="#未命名漸層_89"/><linearGradient id="未命名漸層_85-8" x1="24.87" y1="15.17" x2="24.87" y2="8.94" xlink:href="#未命名漸層_85"/><linearGradient id="未命名漸層_85-9" x1="28.03" y1="11.71" x2="28.03" y2="4.92" xlink:href="#未命名漸層_85"/><linearGradient id="未命名漸層_85-10" x1="28.03" y1="17.01" x2="28.03" y2="10.39" xlink:href="#未命名漸層_85"/><linearGradient id="未命名漸層_89-5" x1="28.03" y1="50.18" x2="28.03" y2="34.51" xlink:href="#未命名漸層_89"/><linearGradient id="未命名漸層_88-5" x1="28.03" y1="35.84" x2="28.03" y2="15.68" xlink:href="#未命名漸層_88"/><linearGradient id="未命名漸層_88-6" x1="32.1" y1="29.64" x2="32.1" y2="37.39" xlink:href="#未命名漸層_88"/><linearGradient id="未命名漸層_89-6" x1="32.1" y1="50.14" x2="32.1" y2="36.28" xlink:href="#未命名漸層_89"/><linearGradient id="未命名漸層_88-7" x1="37.42" y1="32.21" x2="37.42" y2="39.94" xlink:href="#未命名漸層_88"/><linearGradient id="未命名漸層_89-7" x1="37.42" y1="50.14" x2="37.42" y2="38.37" xlink:href="#未命名漸層_89"/><linearGradient id="未命名漸層_89-8" x1="41.61" y1="50.14" x2="41.61" y2="40.66" xlink:href="#未命名漸層_89"/><linearGradient id="未命名漸層_88-8" x1="41.61" y1="35.02" x2="41.61" y2="41.34" xlink:href="#未命名漸層_88"/><linearGradient id="未命名漸層_88-9" x1="44.99" y1="35.02" x2="44.99" y2="41.41" xlink:href="#未命名漸層_88"/><linearGradient id="未命名漸層_89-9" x1="44.99" y1="50.15" x2="44.99" y2="40.66" xlink:href="#未命名漸層_89"/><linearGradient id="未命名漸層_88-10" x1="49.04" y1="32.41" x2="49.04" y2="39.94" xlink:href="#未命名漸層_88"/><linearGradient id="未命名漸層_89-10" x1="49.04" y1="50.14" x2="49.04" y2="38.53" xlink:href="#未命名漸層_89"/><linearGradient id="未命名漸層_88-11" x1="54.17" y1="29.82" x2="54.17" y2="37.55" xlink:href="#未命名漸層_88"/><linearGradient id="未命名漸層_89-11" x1="54.17" y1="50.14" x2="54.17" y2="36.43" xlink:href="#未命名漸層_89"/><linearGradient id="未命名漸層_85-11" x1="15.38" y1="5.47" x2="15.38" y2="0" xlink:href="#未命名漸層_85"/><linearGradient id="未命名漸層_89-12" x1="15.38" y1="50.14" x2="15.38" y2="28.97" xlink:href="#未命名漸層_89"/><linearGradient id="未命名漸層_88-12" x1="15.38" y1="28.97" x2="15.38" y2="10.76" xlink:href="#未命名漸層_88"/><linearGradient id="未命名漸層_85-12" x1="15.38" y1="10.76" x2="15.38" y2="5.47" xlink:href="#未命名漸層_85"/><linearGradient id="未命名漸層_85-13" x1="8.78" y1="7.67" x2="8.78" y2="1.48" xlink:href="#未命名漸層_85"/><linearGradient id="未命名漸層_89-13" x1="8.78" y1="50.14" x2="8.78" y2="30.7" xlink:href="#未命名漸層_89"/><linearGradient id="未命名漸層_88-13" x1="8.78" y1="31.42" x2="8.78" y2="12.25" xlink:href="#未命名漸層_88"/><linearGradient id="未命名漸層_85-14" x1="8.78" y1="12.96" x2="8.78" y2="6.95" xlink:href="#未命名漸層_85"/><linearGradient id="未命名漸層_89-14" x1="5.18" y1="50.14" x2="5.18" y2="32.39" xlink:href="#未命名漸層_89"/><linearGradient id="未命名漸層_88-14" x1="5.18" y1="33.5" x2="5.18" y2="13.93" xlink:href="#未命名漸層_88"/><linearGradient id="未命名漸層_85-15" x1="5.18" y1="15.04" x2="5.18" y2="8.63" xlink:href="#未命名漸層_85"/><linearGradient id="未命名漸層_85-16" x1="5.18" y1="9.74" x2="5.18" y2="3.17" xlink:href="#未命名漸層_85"/><linearGradient id="未命名漸層_85-17" x1="1.58" y1="11.89" x2="1.58" y2="4.78" xlink:href="#未命名漸層_85"/><linearGradient id="未命名漸層_89-15" x1="1.58" y1="50.14" x2="1.58" y2="34" xlink:href="#未命名漸層_89"/><linearGradient id="未命名漸層_88-15" x1="1.58" y1="35.64" x2="1.58" y2="15.54" xlink:href="#未命名漸層_88"/><linearGradient id="未命名漸層_85-18" x1="1.58" y1="17.18" x2="1.58" y2="10.24" xlink:href="#未命名漸層_85"/><linearGradient id="未命名漸層_89-16" x1="-976.9" y1="103.96" x2="-976.9" y2="83.25" gradientTransform="matrix(-1, 0, 0, 1, -889.53, 0)" xlink:href="#未命名漸層_89"/><linearGradient id="未命名漸層_88-16" x1="-976.9" y1="83.88" x2="-976.9" y2="64.67" gradientTransform="matrix(-1, 0, 0, 1, -889.53, 0)" xlink:href="#未命名漸層_88"/><linearGradient id="未命名漸層_85-19" x1="-976.9" y1="65.39" x2="-976.9" y2="59.38" gradientTransform="matrix(-1, 0, 0, 1, -889.53, 0)" xlink:href="#未命名漸層_85"/><linearGradient id="未命名漸層_85-20" x1="-976.9" y1="60.1" x2="-976.9" y2="53.91" gradientTransform="matrix(-1, 0, 0, 1, -889.53, 0)" xlink:href="#未命名漸層_85"/><linearGradient id="未命名漸層_85-21" x1="-969.64" y1="60.39" x2="-969.64" y2="54.45" gradientTransform="matrix(-1, 0, 0, 1, -889.53, 0)" xlink:href="#未命名漸層_85"/><linearGradient id="未命名漸層_85-22" x1="-969.64" y1="65.68" x2="-969.64" y2="59.92" gradientTransform="matrix(-1, 0, 0, 1, -889.53, 0)" xlink:href="#未命名漸層_85"/><linearGradient id="未命名漸層_88-17" x1="-969.64" y1="84.51" x2="-969.64" y2="65.21" gradientTransform="matrix(-1, 0, 0, 1, -889.53, 0)" xlink:href="#未命名漸層_88"/><linearGradient id="未命名漸層_89-17" x1="-969.64" y1="103.96" x2="-969.64" y2="84.02" gradientTransform="matrix(-1, 0, 0, 1, -889.53, 0)" xlink:href="#未命名漸層_89"/><linearGradient id="未命名漸層_88-18" x1="-966.72" y1="86.14" x2="-966.72" y2="66.6" gradientTransform="matrix(-1, 0, 0, 1, -902.03, -53.81)" xlink:href="#未命名漸層_88"/><linearGradient id="未命名漸層_89-18" x1="-966.72" y1="103.96" x2="-966.72" y2="85.43" gradientTransform="matrix(-1, 0, 0, 1, -902.03, -53.81)" xlink:href="#未命名漸層_89"/><linearGradient id="未命名漸層_85-23" x1="-966.72" y1="67.31" x2="-966.72" y2="61.31" gradientTransform="matrix(-1, 0, 0, 1, -902.03, -53.81)" xlink:href="#未命名漸層_85"/><linearGradient id="未命名漸層_85-24" x1="-966.72" y1="62.02" x2="-966.72" y2="55.84" gradientTransform="matrix(-1, 0, 0, 1, -902.03, -53.81)" xlink:href="#未命名漸層_85"/><linearGradient id="未命名漸層_85-25" x1="-963.74" y1="63.69" x2="-963.74" y2="57.29" gradientTransform="matrix(-1, 0, 0, 1, -902.03, -53.81)" xlink:href="#未命名漸層_85"/><linearGradient id="未命名漸層_88-19" x1="-963.74" y1="87.81" x2="-963.74" y2="68.05" gradientTransform="matrix(-1, 0, 0, 1, -902.03, -53.81)" xlink:href="#未命名漸層_88"/><linearGradient id="未命名漸層_89-19" x1="-963.74" y1="103.96" x2="-963.74" y2="86.88" gradientTransform="matrix(-1, 0, 0, 1, -902.03, -53.81)" xlink:href="#未命名漸層_89"/><linearGradient id="未命名漸層_85-26" x1="-963.74" y1="68.99" x2="-963.74" y2="62.76" gradientTransform="matrix(-1, 0, 0, 1, -902.03, -53.81)" xlink:href="#未命名漸層_85"/><linearGradient id="未命名漸層_85-27" x1="-960.56" y1="65.53" x2="-960.56" y2="58.7" gradientTransform="matrix(-1, 0, 0, 1, -902.03, -53.81)" xlink:href="#未命名漸層_85"/><linearGradient id="未命名漸層_85-28" x1="-960.56" y1="70.82" x2="-960.56" y2="64.17" gradientTransform="matrix(-1, 0, 0, 1, -902.03, -53.81)" xlink:href="#未命名漸層_85"/><linearGradient id="未命名漸層_89-20" x1="-960.56" y1="103.96" x2="-960.56" y2="88.29" gradientTransform="matrix(-1, 0, 0, 1, -902.03, -53.81)" xlink:href="#未命名漸層_89"/><linearGradient id="未命名漸層_88-20" x1="-960.56" y1="89.65" x2="-960.56" y2="69.46" gradientTransform="matrix(-1, 0, 0, 1, -902.03, -53.81)" xlink:href="#未命名漸層_88"/><linearGradient id="未命名漸層_85-29" x1="-973.22" y1="59.28" x2="-973.22" y2="53.81" gradientTransform="matrix(-1, 0, 0, 1, -902.03, -53.81)" xlink:href="#未命名漸層_85"/><linearGradient id="未命名漸層_89-21" x1="-973.22" y1="103.96" x2="-973.22" y2="82.78" gradientTransform="matrix(-1, 0, 0, 1, -902.03, -53.81)" xlink:href="#未命名漸層_89"/><linearGradient id="未命名漸層_88-21" x1="-973.22" y1="82.78" x2="-973.22" y2="64.58" gradientTransform="matrix(-1, 0, 0, 1, -902.03, -53.81)" xlink:href="#未命名漸層_88"/><linearGradient id="未命名漸層_85-30" x1="-973.22" y1="64.58" x2="-973.22" y2="59.28" gradientTransform="matrix(-1, 0, 0, 1, -902.03, -53.81)" xlink:href="#未命名漸層_85"/><linearGradient id="未命名漸層_85-31" x1="-979.82" y1="61.48" x2="-979.82" y2="55.3" gradientTransform="matrix(-1, 0, 0, 1, -902.03, -53.81)" xlink:href="#未命名漸層_85"/><linearGradient id="未命名漸層_89-22" x1="-979.82" y1="103.96" x2="-979.82" y2="84.52" gradientTransform="matrix(-1, 0, 0, 1, -902.03, -53.81)" xlink:href="#未命名漸層_89"/><linearGradient id="未命名漸層_88-22" x1="-979.82" y1="85.24" x2="-979.82" y2="66.06" gradientTransform="matrix(-1, 0, 0, 1, -902.03, -53.81)" xlink:href="#未命名漸層_88"/><linearGradient id="未命名漸層_85-32" x1="-979.82" y1="66.78" x2="-979.82" y2="60.76" gradientTransform="matrix(-1, 0, 0, 1, -902.03, -53.81)" xlink:href="#未命名漸層_85"/><linearGradient id="未命名漸層_89-23" x1="-983.43" y1="103.96" x2="-983.43" y2="86.2" gradientTransform="matrix(-1, 0, 0, 1, -902.03, -53.81)" xlink:href="#未命名漸層_89"/><linearGradient id="未命名漸層_88-23" x1="-983.43" y1="87.31" x2="-983.43" y2="67.74" gradientTransform="matrix(-1, 0, 0, 1, -902.03, -53.81)" xlink:href="#未命名漸層_88"/><linearGradient id="未命名漸層_85-33" x1="-983.43" y1="68.85" x2="-983.43" y2="62.45" gradientTransform="matrix(-1, 0, 0, 1, -902.03, -53.81)" xlink:href="#未命名漸層_85"/><linearGradient id="未命名漸層_85-34" x1="-983.43" y1="63.56" x2="-983.43" y2="56.98" gradientTransform="matrix(-1, 0, 0, 1, -902.03, -53.81)" xlink:href="#未命名漸層_85"/><linearGradient id="未命名漸層_85-35" x1="-987.03" y1="65.7" x2="-987.03" y2="58.59" gradientTransform="matrix(-1, 0, 0, 1, -902.03, -53.81)" xlink:href="#未命名漸層_85"/><linearGradient id="未命名漸層_89-24" x1="-987.03" y1="103.96" x2="-987.03" y2="87.81" gradientTransform="matrix(-1, 0, 0, 1, -902.03, -53.81)" xlink:href="#未命名漸層_89"/><linearGradient id="未命名漸層_88-24" x1="-987.03" y1="89.45" x2="-987.03" y2="69.35" gradientTransform="matrix(-1, 0, 0, 1, -902.03, -53.81)" xlink:href="#未命名漸層_88"/><linearGradient id="未命名漸層_90" x1="24.21" y1="105.66" x2="24.21" y2="140.72" gradientUnits="userSpaceOnUse"><stop offset="0" stop-color="#e9eaee"/><stop offset="1" stop-color="#074053"/></linearGradient><linearGradient id="未命名漸層_90-2" x1="31.47" y1="105.66" x2="31.47" y2="140.18" xlink:href="#未命名漸層_90"/><linearGradient id="未命名漸層_90-3" x1="21.89" y1="51.85" x2="21.89" y2="84.98" xlink:href="#未命名漸層_90"/><linearGradient id="未命名漸層_90-4" x1="24.87" y1="51.85" x2="24.87" y2="83.53" xlink:href="#未命名漸層_90"/><linearGradient id="未命名漸層_90-5" x1="28.03" y1="51.85" x2="28.03" y2="82.15" xlink:href="#未命名漸層_90"/><linearGradient id="未命名漸層_90-6" x1="44.6" y1="-251" x2="44.6" y2="-258.75" gradientTransform="matrix(1, 0, 0, -1, -12.5, -186.4)" xlink:href="#未命名漸層_90"/><linearGradient id="未命名漸層_90-7" x1="44.6" y1="-238.25" x2="44.6" y2="-252.11" gradientTransform="matrix(1, 0, 0, -1, -12.5, -186.4)" xlink:href="#未命名漸層_90"/><linearGradient id="未命名漸層_90-8" x1="49.92" y1="-248.45" x2="49.92" y2="-256.18" gradientTransform="matrix(1, 0, 0, -1, -12.5, -186.4)" xlink:href="#未命名漸層_90"/><linearGradient id="未命名漸層_90-9" x1="49.92" y1="-238.25" x2="49.92" y2="-250.02" gradientTransform="matrix(1, 0, 0, -1, -12.5, -186.4)" xlink:href="#未命名漸層_90"/><linearGradient id="未命名漸層_90-10" x1="54.11" y1="-238.24" x2="54.11" y2="-247.79" gradientTransform="matrix(1, 0, 0, -1, -12.5, -186.4)" xlink:href="#未命名漸層_90"/><linearGradient id="未命名漸層_90-11" x1="54.11" y1="-247.04" x2="54.11" y2="-253.43" gradientTransform="matrix(1, 0, 0, -1, -12.5, -186.4)" xlink:href="#未命名漸層_90"/><linearGradient id="未命名漸層_90-12" x1="57.49" y1="-247" x2="57.49" y2="-253.42" gradientTransform="matrix(1, 0, 0, -1, -12.5, -186.4)" xlink:href="#未命名漸層_90"/><linearGradient id="未命名漸層_90-13" x1="57.49" y1="-238.25" x2="57.49" y2="-247.78" gradientTransform="matrix(1, 0, 0, -1, -12.5, -186.4)" xlink:href="#未命名漸層_90"/><linearGradient id="未命名漸層_90-14" x1="61.54" y1="-248.45" x2="61.54" y2="-255.98" gradientTransform="matrix(1, 0, 0, -1, -12.5, -186.4)" xlink:href="#未命名漸層_90"/><linearGradient id="未命名漸層_90-15" x1="61.54" y1="-238.25" x2="61.54" y2="-249.86" gradientTransform="matrix(1, 0, 0, -1, -12.5, -186.4)" xlink:href="#未命名漸層_90"/><linearGradient id="未命名漸層_90-16" x1="66.67" y1="-250.84" x2="66.67" y2="-258.57" gradientTransform="matrix(1, 0, 0, -1, -12.5, -186.4)" xlink:href="#未命名漸層_90"/><linearGradient id="未命名漸層_90-17" x1="66.67" y1="-238.25" x2="66.67" y2="-251.96" gradientTransform="matrix(1, 0, 0, -1, -12.5, -186.4)" xlink:href="#未命名漸層_90"/><linearGradient id="未命名漸層_90-18" x1="15.38" y1="51.85" x2="15.38" y2="87.01" xlink:href="#未命名漸層_90"/><linearGradient id="未命名漸層_90-19" x1="8.78" y1="51.85" x2="8.78" y2="85.52" xlink:href="#未命名漸層_90"/><linearGradient id="未命名漸層_90-20" x1="5.18" y1="51.85" x2="5.18" y2="83.84" xlink:href="#未命名漸層_90"/><linearGradient id="未命名漸層_90-21" x1="1.58" y1="51.85" x2="1.58" y2="82.23" xlink:href="#未命名漸層_90"/><linearGradient id="未命名漸層_90-22" x1="87.37" y1="105.66" x2="87.37" y2="140.72" xlink:href="#未命名漸層_90"/><linearGradient id="未命名漸層_90-23" x1="80.11" y1="105.66" x2="80.11" y2="140.18" xlink:href="#未命名漸層_90"/><linearGradient id="未命名漸層_90-24" x1="64.69" y1="51.85" x2="64.69" y2="84.98" xlink:href="#未命名漸層_90"/><linearGradient id="未命名漸層_90-25" x1="61.71" y1="51.85" x2="61.71" y2="83.53" xlink:href="#未命名漸層_90"/><linearGradient id="未命名漸層_90-26" x1="58.53" y1="51.85" x2="58.53" y2="82.12" xlink:href="#未命名漸層_90"/><linearGradient id="未命名漸層_90-27" x1="71.19" y1="51.85" x2="71.19" y2="87.01" xlink:href="#未命名漸層_90"/><linearGradient id="未命名漸層_90-28" x1="77.79" y1="51.85" x2="77.79" y2="85.52" xlink:href="#未命名漸層_90"/><linearGradient id="未命名漸層_90-29" x1="81.4" y1="51.85" x2="81.4" y2="83.84" xlink:href="#未命名漸層_90"/><linearGradient id="未命名漸層_90-30" x1="85" y1="51.85" x2="85" y2="82.23" xlink:href="#未命名漸層_90"/><linearGradient id="未命名漸層_85-36" x1="-987.03" y1="71" x2="-987.03" y2="64.06" gradientTransform="matrix(-1, 0, 0, 1, -902.03, -53.81)" xlink:href="#未命名漸層_85"/><linearGradient id="未命名漸層_85-37" x1="24.21" y1="-272.95" x2="24.21" y2="-278.97" gradientTransform="matrix(1, 0, 0, -1, 0, -132.88)" xlink:href="#未命名漸層_85"/><linearGradient id="未命名漸層_85-38" x1="31.47" y1="-272.67" x2="31.47" y2="-278.43" gradientTransform="matrix(1, 0, 0, -1, 0, -132.88)" xlink:href="#未命名漸層_85"/><linearGradient id="未命名漸層_85-39" x1="34.39" y1="-271.03" x2="34.39" y2="-277.04" gradientTransform="matrix(1, 0, 0, -1, -12.5, -186.7)" xlink:href="#未命名漸層_85"/><linearGradient id="未命名漸層_85-40" x1="37.37" y1="-269.36" x2="37.37" y2="-275.59" gradientTransform="matrix(1, 0, 0, -1, -12.5, -186.7)" xlink:href="#未命名漸層_85"/><linearGradient id="未命名漸層_85-41" x1="40.53" y1="-267.52" x2="40.53" y2="-274.15" gradientTransform="matrix(1, 0, 0, -1, -12.5, -186.7)" xlink:href="#未命名漸層_85"/><linearGradient id="未命名漸層_85-42" x1="27.88" y1="-273.77" x2="27.88" y2="-279.07" gradientTransform="matrix(1, 0, 0, -1, -12.5, -186.7)" xlink:href="#未命名漸層_85"/><linearGradient id="未命名漸層_85-43" x1="21.28" y1="-271.57" x2="21.28" y2="-277.58" gradientTransform="matrix(1, 0, 0, -1, -12.5, -186.7)" xlink:href="#未命名漸層_85"/><linearGradient id="未命名漸層_85-44" x1="17.68" y1="-269.5" x2="17.68" y2="-275.9" gradientTransform="matrix(1, 0, 0, -1, -12.5, -186.7)" xlink:href="#未命名漸層_85"/><linearGradient id="未命名漸層_85-45" x1="14.08" y1="-267.35" x2="14.08" y2="-274.29" gradientTransform="matrix(1, 0, 0, -1, -12.5, -186.7)" xlink:href="#未命名漸層_85"/><linearGradient id="未命名漸層_85-46" x1="-976.9" y1="-272.95" x2="-976.9" y2="-278.97" gradientTransform="translate(-889.53 -132.88) rotate(180)" xlink:href="#未命名漸層_85"/><linearGradient id="未命名漸層_85-47" x1="-969.64" y1="-272.67" x2="-969.64" y2="-278.43" gradientTransform="translate(-889.53 -132.88) rotate(180)" xlink:href="#未命名漸層_85"/><linearGradient id="未命名漸層_85-48" x1="-966.72" y1="-271.03" x2="-966.72" y2="-277.04" gradientTransform="translate(-902.03 -186.7) rotate(180)" xlink:href="#未命名漸層_85"/><linearGradient id="未命名漸層_85-49" x1="-963.74" y1="-269.36" x2="-963.74" y2="-275.59" gradientTransform="translate(-902.03 -186.7) rotate(180)" xlink:href="#未命名漸層_85"/><linearGradient id="未命名漸層_85-50" x1="-960.56" y1="-267.52" x2="-960.56" y2="-274.18" gradientTransform="translate(-902.03 -186.7) rotate(180)" xlink:href="#未命名漸層_85"/><linearGradient id="未命名漸層_85-51" x1="-973.22" y1="-273.77" x2="-973.22" y2="-279.07" gradientTransform="translate(-902.03 -186.7) rotate(180)" xlink:href="#未命名漸層_85"/><linearGradient id="未命名漸層_85-52" x1="-979.82" y1="-271.57" x2="-979.82" y2="-277.58" gradientTransform="translate(-902.03 -186.7) rotate(180)" xlink:href="#未命名漸層_85"/><linearGradient id="未命名漸層_85-53" x1="-983.43" y1="-269.5" x2="-983.43" y2="-275.9" gradientTransform="translate(-902.03 -186.7) rotate(180)" xlink:href="#未命名漸層_85"/><linearGradient id="未命名漸層_85-54" x1="-987.03" y1="-267.35" x2="-987.03" y2="-274.29" gradientTransform="translate(-902.03 -186.7) rotate(180)" xlink:href="#未命名漸層_85"/></defs><path class="cls-1" d="M23.25,104h1.91V83.25a8.39,8.39,0,0,0-1.91.63Z" transform="translate(-12.5 -53.81)"/><path class="cls-2" d="M23.25,65.39V83.88a8.39,8.39,0,0,1,1.91-.63V64.67A9.84,9.84,0,0,0,23.25,65.39Z" transform="translate(-12.5 -53.81)"/><path class="cls-3" d="M23.25,60.1v5.29a9.84,9.84,0,0,1,1.91-.72V59.38A8.69,8.69,0,0,0,23.25,60.1Z" transform="translate(-12.5 -53.81)"/><path class="cls-4" d="M23.25,54.63V60.1a8.69,8.69,0,0,1,1.91-.72V53.91A9.84,9.84,0,0,0,23.25,54.63Z" transform="translate(-12.5 -53.81)"/><path class="cls-5" d="M31.94,60.39V54.92l-.5-.26L31,54.45v5.47l.45.2Z" transform="translate(-12.5 -53.81)"/><path class="cls-6" d="M31.94,65.68V60.39l-.5-.27-.45-.2v5.29l.45.21Z" transform="translate(-12.5 -53.81)"/><path class="cls-7" d="M31.94,84.51V65.68l-.5-.26L31,65.21V84l.1,0Z" transform="translate(-12.5 -53.81)"/><path class="cls-8" d="M31.09,84.06,31,84V104h1V84.51Z" transform="translate(-12.5 -53.81)"/><polygon class="cls-9" points="22.56 13.5 21.21 12.79 21.21 31.62 22.56 32.33 22.56 13.5"/><polygon class="cls-10" points="21.21 31.62 21.21 50.14 22.56 50.14 22.56 32.33 21.21 31.62"/><polygon class="cls-11" points="22.56 8.2 21.21 7.5 21.21 12.79 22.56 13.5 22.56 8.2"/><polygon class="cls-12" points="22.56 2.74 21.21 2.03 21.21 7.5 22.56 8.2 22.56 2.74"/><polygon class="cls-13" points="25.76 4.41 23.98 3.48 23.98 8.94 25.76 9.88 25.76 4.41"/><polygon class="cls-14" points="25.76 15.17 23.98 14.24 23.98 33.07 25.76 34 25.76 15.17"/><polygon class="cls-15" points="23.98 33.07 23.98 50.14 25.76 50.14 25.76 34 23.98 33.07"/><polygon class="cls-16" points="25.76 9.88 23.98 8.94 23.98 14.24 25.76 15.17 25.76 9.88"/><polygon class="cls-17" points="29.27 6.25 26.78 4.92 26.78 10.39 29.27 11.71 29.27 6.25"/><polygon class="cls-18" points="29.27 11.71 26.78 10.39 26.78 15.68 29.27 17.01 29.27 11.71"/><polygon class="cls-19" points="26.78 34.51 26.78 50.18 29.27 50.14 29.27 35.84 26.78 34.51"/><polygon class="cls-20" points="29.27 17.01 26.78 15.68 26.78 34.51 29.27 35.84 29.27 17.01"/><polygon class="cls-21" points="33.85 31.52 30.35 29.64 30.35 35.87 33.85 37.39 33.85 31.52"/><polygon class="cls-22" points="30.35 50.14 33.85 50.14 33.85 37.81 30.35 36.28 30.35 50.14"/><polygon class="cls-23" points="39.7 34.67 35.14 32.21 35.14 37.95 39.7 39.94 39.7 34.67"/><polygon class="cls-24" points="35.14 50.14 39.7 50.14 39.7 40.36 35.14 38.37 35.14 50.14"/><polygon class="cls-25" points="40.41 50.14 42.82 50.14 42.82 41.76 40.41 40.66 40.41 50.14"/><polygon class="cls-26" points="42.82 36.4 40.41 35.02 40.41 40.24 42.82 41.34 42.82 36.4"/><polygon class="cls-27" points="46.24 35.02 43.73 36.43 43.73 41.41 46.24 40.27 46.24 35.02"/><polygon class="cls-28" points="43.73 41.79 43.73 50.15 46.24 50.14 46.24 40.66 43.73 41.79"/><polygon class="cls-29" points="51.09 32.41 46.99 34.62 46.99 39.94 51.09 38.15 51.09 32.41"/><polygon class="cls-30" points="46.99 40.32 46.99 50.14 51.09 50.14 51.09 38.53 46.99 40.32"/><polygon class="cls-31" points="55.88 29.82 52.46 31.67 52.46 37.55 55.88 36.05 55.88 29.82"/><polygon class="cls-32" points="52.46 37.93 52.46 50.14 55.88 50.14 55.88 36.43 52.46 37.93"/><rect class="cls-33" x="13.16" width="4.43" height="5.47"/><rect class="cls-34" x="13.16" y="28.97" width="4.43" height="21.17"/><rect class="cls-35" x="13.16" y="10.76" width="4.43" height="18.21"/><rect class="cls-36" x="13.16" y="5.47" width="4.43" height="5.3"/><polygon class="cls-37" points="8.09 2.2 8.09 7.67 9.47 6.95 9.47 1.48 8.09 2.2"/><polygon class="cls-38" points="8.09 50.14 9.47 50.14 9.47 30.7 8.09 31.42 8.09 50.14"/><polygon class="cls-39" points="8.09 12.96 8.09 31.42 9.47 30.7 9.47 12.25 8.09 12.96"/><polygon class="cls-40" points="8.09 7.67 8.09 12.96 9.47 12.25 9.47 6.95 8.09 7.67"/><polygon class="cls-41" points="4.12 50.14 6.24 50.14 6.24 32.39 4.12 33.49 4.12 50.14"/><polygon class="cls-42" points="4.12 15.04 4.12 33.49 6.24 32.39 6.24 13.93 4.12 15.04"/><polygon class="cls-43" points="4.12 9.74 4.12 15.04 6.24 13.93 6.24 8.63 4.12 9.74"/><polygon class="cls-44" points="4.12 4.28 4.12 9.74 6.24 8.63 6.24 3.17 4.12 4.28"/><polygon class="cls-45" points="3.15 4.78 0 6.42 0 11.89 3.15 10.24 3.15 4.78"/><polygon class="cls-46" points="0 50.14 3.15 50.14 3.15 34 0 35.64 0 50.14"/><polygon class="cls-47" points="0 17.18 0 35.64 3.15 34 3.15 15.54 0 17.18"/><polygon class="cls-48" points="0 11.89 0 17.18 3.15 15.54 3.15 10.24 0 11.89"/><path class="cls-49" d="M88.32,104H86.41V83.25a8.23,8.23,0,0,1,1.91.63Z" transform="translate(-12.5 -53.81)"/><path class="cls-50" d="M88.32,65.39V83.88a8.23,8.23,0,0,0-1.91-.63V64.67A9.37,9.37,0,0,1,88.32,65.39Z" transform="translate(-12.5 -53.81)"/><path class="cls-51" d="M88.32,60.1v5.29a9.37,9.37,0,0,0-1.91-.72V59.38A8.33,8.33,0,0,1,88.32,60.1Z" transform="translate(-12.5 -53.81)"/><path class="cls-52" d="M88.32,54.63V60.1a8.33,8.33,0,0,0-1.91-.72V53.91A9.37,9.37,0,0,1,88.32,54.63Z" transform="translate(-12.5 -53.81)"/><path class="cls-53" d="M79.63,60.39V54.92l.5-.26c.15-.08.31-.14.46-.21v5.47l-.46.2Z" transform="translate(-12.5 -53.81)"/><path class="cls-54" d="M79.63,65.68V60.39l.5-.27.46-.2v5.29c-.15.07-.31.13-.46.21Z" transform="translate(-12.5 -53.81)"/><path class="cls-55" d="M79.63,84.51V65.68l.5-.26c.15-.08.31-.14.46-.21V84l-.1,0Z" transform="translate(-12.5 -53.81)"/><path class="cls-56" d="M80.49,84.06l.1,0V104h-1V84.51Z" transform="translate(-12.5 -53.81)"/><polygon class="cls-57" points="64.01 13.5 65.37 12.79 65.37 31.62 64.01 32.33 64.01 13.5"/><polygon class="cls-58" points="65.37 31.62 65.37 50.14 64.01 50.14 64.01 32.33 65.37 31.62"/><polygon class="cls-59" points="64.01 8.2 65.37 7.5 65.37 12.79 64.01 13.5 64.01 8.2"/><polygon class="cls-60" points="64.01 2.74 65.37 2.03 65.37 7.5 64.01 8.2 64.01 2.74"/><polygon class="cls-61" points="60.82 4.41 62.6 3.48 62.6 8.94 60.82 9.88 60.82 4.41"/><polygon class="cls-62" points="60.82 15.17 62.6 14.24 62.6 33.07 60.82 34 60.82 15.17"/><polygon class="cls-63" points="62.6 33.07 62.6 50.14 60.82 50.14 60.82 34 62.6 33.07"/><polygon class="cls-64" points="60.82 9.88 62.6 8.94 62.6 14.24 60.82 15.17 60.82 9.88"/><polygon class="cls-65" points="57.3 6.25 59.76 4.89 59.76 10.36 57.3 11.71 57.3 6.25"/><polygon class="cls-66" points="57.3 11.71 59.76 10.36 59.76 15.65 57.3 17.01 57.3 11.71"/><polygon class="cls-67" points="59.76 34.48 59.76 50.14 57.3 50.14 57.3 35.84 59.76 34.48"/><polygon class="cls-68" points="57.3 17.01 59.76 15.65 59.76 34.48 57.3 35.84 57.3 17.01"/><rect class="cls-69" x="68.98" width="4.43" height="5.47"/><rect class="cls-70" x="68.98" y="28.97" width="4.43" height="21.17"/><rect class="cls-71" x="68.98" y="10.76" width="4.43" height="18.21"/><rect class="cls-72" x="68.98" y="5.47" width="4.43" height="5.3"/><polygon class="cls-73" points="78.48 2.2 78.48 7.67 77.11 6.95 77.11 1.48 78.48 2.2"/><polygon class="cls-74" points="78.48 50.14 77.11 50.14 77.11 30.7 78.48 31.42 78.48 50.14"/><polygon class="cls-75" points="78.48 12.96 78.48 31.42 77.11 30.7 77.11 12.25 78.48 12.96"/><polygon class="cls-76" points="78.48 7.67 78.48 12.96 77.11 12.25 77.11 6.95 78.48 7.67"/><polygon class="cls-77" points="82.46 50.14 80.33 50.14 80.33 32.39 82.46 33.49 82.46 50.14"/><polygon class="cls-78" points="82.46 15.04 82.46 33.49 80.33 32.39 80.33 13.93 82.46 15.04"/><polygon class="cls-79" points="82.46 9.74 82.46 15.04 80.33 13.93 80.33 8.63 82.46 9.74"/><polygon class="cls-80" points="82.46 4.28 82.46 9.74 80.33 8.63 80.33 3.17 82.46 4.28"/><polygon class="cls-81" points="83.42 4.78 86.58 6.42 86.58 11.89 83.42 10.24 83.42 4.78"/><polygon class="cls-82" points="86.58 50.14 83.42 50.14 83.42 34 86.58 35.64 86.58 50.14"/><polygon class="cls-83" points="86.58 17.18 86.58 35.64 83.42 34 83.42 15.54 86.58 17.18"/><g class="cls-84"><path class="cls-85" d="M23.25,105.66V140a8.69,8.69,0,0,0,1.91.72V105.66Z" transform="translate(-12.5 -53.81)"/><path class="cls-86" d="M31,105.66v34.52c.15-.07.3-.12.45-.2l.5-.26V105.66Z" transform="translate(-12.5 -53.81)"/><polygon class="cls-87" points="21.21 51.85 21.21 70.37 21.21 84.98 22.56 84.27 22.56 69.66 22.56 51.85 21.21 51.85"/><polygon class="cls-88" points="23.98 51.85 23.98 68.92 23.98 83.53 25.76 82.6 25.76 67.99 25.76 51.85 23.98 51.85"/><polygon class="cls-89" points="26.78 51.88 26.78 67.54 26.78 82.15 29.27 80.76 29.27 66.15 29.27 51.85 26.78 51.88"/><polygon class="cls-90" points="33.85 70.47 30.35 72.35 30.35 66.12 33.85 64.6 33.85 70.47"/><polygon class="cls-91" points="30.35 51.85 33.85 51.85 33.85 64.18 30.35 65.71 30.35 51.85"/><polygon class="cls-92" points="39.7 67.32 35.14 69.78 35.14 64.04 39.7 62.05 39.7 67.32"/><polygon class="cls-93" points="35.14 51.85 39.7 51.85 39.7 61.63 35.14 63.62 35.14 51.85"/><polygon class="cls-94" points="40.41 51.85 42.82 51.84 42.82 60.22 40.41 61.39 40.41 51.85"/><polygon class="cls-95" points="42.82 65.58 40.41 67.03 40.41 61.81 42.82 60.63 42.82 65.58"/><polygon class="cls-96" points="46.24 67.01 43.73 65.57 43.73 60.6 46.24 61.77 46.24 67.01"/><polygon class="cls-97" points="43.73 60.21 43.73 51.85 46.24 51.85 46.24 61.38 43.73 60.21"/><polygon class="cls-98" points="51.09 69.58 46.99 67.37 46.99 62.05 51.09 63.84 51.09 69.58"/><polygon class="cls-99" points="46.99 61.67 46.99 51.85 51.09 51.85 51.09 63.46 46.99 61.67"/><polygon class="cls-100" points="55.88 72.17 52.46 70.32 52.46 64.44 55.88 65.94 55.88 72.17"/><polygon class="cls-101" points="52.46 64.06 52.46 51.85 55.88 51.85 55.88 65.56 52.46 64.06"/><polygon class="cls-102" points="13.16 51.85 13.16 73.02 13.16 87.01 17.6 87.01 17.6 73.02 17.6 51.85 13.16 51.85"/><polygon class="cls-103" points="8.09 51.85 8.09 70.57 8.09 84.8 9.47 85.52 9.47 71.29 9.47 51.85 8.09 51.85"/><polygon class="cls-104" points="4.12 51.85 4.12 68.5 4.12 82.73 6.24 83.84 6.24 69.6 6.24 51.85 4.12 51.85"/><polygon class="cls-105" points="0 51.85 0 66.35 0 80.59 3.15 82.23 3.15 67.99 3.15 51.85 0 51.85"/><path class="cls-106" d="M86.41,105.66v35.06a8.33,8.33,0,0,0,1.91-.72V105.66Z" transform="translate(-12.5 -53.81)"/><path class="cls-107" d="M79.63,105.66v34.06l.5.26c.15.08.31.13.46.2V105.66Z" transform="translate(-12.5 -53.81)"/><polygon class="cls-108" points="64.01 51.85 64.01 69.66 64.01 84.27 65.37 84.98 65.37 70.37 65.37 51.85 64.01 51.85"/><polygon class="cls-109" points="60.82 51.85 60.82 67.99 60.82 82.6 62.6 83.53 62.6 68.92 62.6 51.85 60.82 51.85"/><polygon class="cls-110" points="57.3 51.85 57.3 66.15 57.3 80.76 59.76 82.12 59.76 67.51 59.76 51.85 57.3 51.85"/><polygon class="cls-111" points="68.98 51.85 68.98 73.02 68.98 87.01 73.41 87.01 73.41 73.02 73.41 51.85 68.98 51.85"/><polygon class="cls-112" points="77.11 51.85 77.11 71.29 77.11 85.52 78.48 84.8 78.48 70.57 78.48 51.85 77.11 51.85"/><polygon class="cls-113" points="80.33 51.85 80.33 69.6 80.33 83.84 82.46 82.73 82.46 68.5 82.46 51.85 80.33 51.85"/><polygon class="cls-114" points="83.42 51.85 83.42 67.99 83.42 82.23 86.58 80.59 86.58 66.35 86.58 51.85 83.42 51.85"/></g><polygon class="cls-115" points="86.58 11.89 86.58 17.18 83.42 15.54 83.42 10.24 86.58 11.89"/><path class="cls-116" d="M23.25,145.37v-5.3a8.69,8.69,0,0,0,1.91.72v5.3A9.84,9.84,0,0,1,23.25,145.37Z" transform="translate(-12.5 -53.81)"/><path class="cls-117" d="M31.94,139.79v5.29l-.5.26-.45.21v-5.3c.15-.07.3-.12.45-.2Z" transform="translate(-12.5 -53.81)"/><polygon class="cls-118" points="22.56 89.63 21.21 90.34 21.21 85.05 22.56 84.34 22.56 89.63"/><polygon class="cls-119" points="25.76 87.96 23.98 88.89 23.98 83.6 25.76 82.67 25.76 87.96"/><polygon class="cls-120" points="29.27 86.12 26.78 87.45 26.78 82.16 29.27 80.83 29.27 86.12"/><rect class="cls-121" x="13.16" y="87.08" width="4.43" height="5.3"/><polygon class="cls-122" points="8.09 90.17 8.09 84.87 9.47 85.59 9.47 90.89 8.09 90.17"/><polygon class="cls-123" points="4.12 88.1 4.12 82.8 6.24 83.91 6.24 89.2 4.12 88.1"/><polygon class="cls-124" points="0 85.95 0 80.66 3.15 82.3 3.15 87.6 0 85.95"/><path class="cls-125" d="M88.32,145.37v-5.3a8.33,8.33,0,0,1-1.91.72v5.3A9.37,9.37,0,0,0,88.32,145.37Z" transform="translate(-12.5 -53.81)"/><path class="cls-126" d="M79.63,139.79v5.29l.5.26c.15.08.31.14.46.21v-5.3c-.15-.07-.31-.12-.46-.2Z" transform="translate(-12.5 -53.81)"/><polygon class="cls-127" points="64.01 89.63 65.37 90.34 65.37 85.05 64.01 84.34 64.01 89.63"/><polygon class="cls-128" points="60.82 87.96 62.6 88.89 62.6 83.6 60.82 82.67 60.82 87.96"/><polygon class="cls-129" points="57.3 86.12 59.76 87.48 59.76 82.19 57.3 80.83 57.3 86.12"/><rect class="cls-130" x="68.98" y="87.08" width="4.43" height="5.3"/><polygon class="cls-131" points="78.48 90.17 78.48 84.87 77.11 85.59 77.11 90.89 78.48 90.17"/><polygon class="cls-132" points="82.46 88.1 82.46 82.8 80.33 83.91 80.33 89.2 82.46 88.1"/><polygon class="cls-133" points="86.58 85.95 86.58 80.66 83.42 82.3 83.42 87.6 86.58 85.95"/><polygon class="cls-134" points="116.38 25.76 101.47 25.76 101.47 8.3 93.24 8.3 93.24 31.62 116.38 31.62 116.38 25.76"/><rect class="cls-134" x="117.89" y="7.67" width="7.13" height="6.55"/><rect class="cls-134" x="117.89" y="15.07" width="7.13" height="16.55"/><path class="cls-134" d="M162,85.43V73.13a6.41,6.41,0,0,0-1.61-4.25c-1.82-2-7.91-2.28-10.57-1.35,0,0-1.62.61-3.15,1.36V67.53h-7.13v17.9h7.13V76c1-1.47,4.2-5.35,8.2-1.19V85.43Z" transform="translate(-12.5 -53.81)"/><rect class="cls-134" x="143.38" y="59.57" width="7.13" height="6.55"/><rect class="cls-134" x="143.38" y="66.97" width="7.13" height="16.55"/><path class="cls-134" d="M185.89,120.79c-1.83-2.06-7.92-2.28-10.58-1.36,0,0-1.61.62-3.14,1.37v-1.37H165v17.91h7.13v-9.47c1-1.47,4.19-5.34,8.2-1.19v10.66h7.13V125A6.39,6.39,0,0,0,185.89,120.79Z" transform="translate(-12.5 -53.81)"/><path class="cls-134" d="M152.85,111.26V93.36h-7.13v9.46c-.06,2.34-2.55,3.33-5,3a3.78,3.78,0,0,1-3.2-3.8V93.36h-7.13v12.3a6.78,6.78,0,0,0,1.61,4.25c2.17,2.65,7.86,2.79,10.52,1.87,0,0,2.66-.92,3.2-1.88v1.36Z" transform="translate(-12.5 -53.81)"/><polygon class="cls-134" points="101.39 57.47 108.57 57.47 108.57 48.9 118.69 34 110.12 34 104.81 42.73 99.68 34 91.11 34 101.17 48.95 101.39 57.47"/><polygon class="cls-134" points="108.47 68.92 101.07 68.92 101.07 60.4 93.24 60.4 93.24 83.98 101.07 83.98 101.07 74.18 108.47 74.18 108.47 83.98 116.29 83.98 116.29 60.4 108.47 60.4 108.47 68.92"/><path class="cls-134" d="M145.13,126.37s-6.13-.22-6.09-.78c0,0-1-2,4.39-1.6,0,0,2.2.16,2.27,2h8.05s.86-6.7-7.77-7.09a45.75,45.75,0,0,0-8.41.25s-6.28.78-6.38,5.64c0,0-.79,5.29,6,5.75a31.06,31.06,0,0,0,6.39.43s3.44.25,2.77,1.67c0,0,0,.95-3.73.81,0,0-3.48.43-4.11-2l-8.11-.14s.44,6.39,9.6,6.78c0,0,10.46,1,13-2.77,0,0,1.85-.85,1.1-4.83C154.07,130.55,152.83,126.22,145.13,126.37Z" transform="translate(-12.5 -53.81)"/></svg>